<svg width="194" height="32" viewBox="0 0 194 32" fill="none" xmlns="http://www.w3.org/2000/svg">
<path fill-rule="evenodd" clip-rule="evenodd" d="M46.5435 0H27.1636L0.894531 31.9105L20.8709 31.8981L46.5435 0ZM47.5724 17.0812H37.3233H32.8797V31.9206H37.3258H47.8905C47.8905 31.9206 50.9424 31.5726 50.9896 28.5133V20.486C50.7983 17.1184 47.5724 17.0812 47.5724 17.0812ZM48.9219 1.04597C48.9219 1.59769 49.3693 2.04504 49.921 2.04504C50.4727 2.04504 50.9201 1.59769 50.9201 1.04597C50.9201 0.496731 50.4727 0.0469018 49.921 0.0469018C49.3693 0.0469018 48.9219 0.494246 48.9219 1.04597ZM49.0213 1.04597C49.0213 0.551406 49.4239 0.148797 49.9185 0.148797C50.4131 0.148797 50.8157 0.551406 50.8157 1.04597C50.8157 1.54053 50.4131 1.94314 49.9185 1.94314C49.4239 1.94314 49.0213 1.54053 49.0213 1.04597ZM49.7072 0.734743H50.0005C50.0576 0.734743 50.157 0.744684 50.157 0.881372C50.157 1.0106 50.0651 1.03297 49.9806 1.03297H49.7072V0.734743ZM49.7072 1.13238H49.993C50.1347 1.13238 50.1496 1.21688 50.1496 1.28895C50.1496 1.32126 50.1521 1.45298 50.1695 1.50765H50.3136V1.48777C50.2763 1.46789 50.2714 1.44801 50.2689 1.40079L50.2614 1.24173C50.2564 1.11996 50.2067 1.09759 50.157 1.07771C50.2117 1.0454 50.2788 0.998179 50.2788 0.868946C50.2788 0.685038 50.1347 0.635333 49.993 0.635333H49.5904V1.50765H49.7072V1.13238Z" fill="white"/>
<path fill-rule="evenodd" clip-rule="evenodd" d="M191.598 17.1451H187.756V28.9077C187.455 28.5051 179.012 17.1774 179.012 17.1774L176.062 17.1426H172.22V31.9695H176.149V19.9484C176.448 20.3461 185.188 31.9397 185.188 31.9397C185.255 31.9745 188.277 31.9795 188.277 31.9795L191.682 31.9695V17.1451H191.598ZM159.653 25.528H169.502V23.1273H159.653L159.654 21.3392L159.655 19.551H169.971V17.1677H169.887H155.651V31.9524H170.048V29.2932H159.653V25.528ZM105.879 17.175H99.7507L92.9684 31.9746H97.4767C97.4767 31.9746 98.6646 29.4198 98.7093 29.3229H107.408C107.455 29.4098 108.886 31.9995 108.886 31.9995H113.313L105.936 17.1775H105.879V17.175ZM106.235 26.6686H99.8053C99.9147 26.4375 102.845 20.202 102.989 19.8938L103.751 21.4858L103.775 21.5339C104.712 23.491 106.158 26.5092 106.235 26.6686ZM68.5733 24.3H68.4764C70.144 24.0664 71.4562 22.6498 71.4562 20.8728C71.4562 18.9319 69.9203 17.3512 68.034 17.3512H65.8445H55.1455V31.8651H68.5758C70.4621 31.8651 71.998 30.1676 71.998 28.0825C71.9955 25.9974 70.4596 24.3 68.5733 24.3ZM66.3142 29.2059H59.3182V25.6346H63.3642H66.3142C67.1592 25.6346 67.8476 26.3255 67.8476 27.1729V27.6675C67.8476 28.515 67.1592 29.2059 66.3142 29.2059ZM67.2536 21.8172C67.2536 22.6249 66.5975 23.281 65.7923 23.281H59.1194V19.8812H62.9765H65.7923C66.5975 19.8812 67.2536 20.5373 67.2536 21.3475V21.8172ZM91.4176 21.8823V21.8826C91.4176 23.0233 91.0995 23.9404 90.4682 24.6089C89.8245 25.2923 89.0168 25.5558 88.4303 25.6701C88.9994 25.7645 89.7748 25.9932 90.3812 26.6269C90.9528 27.2283 91.2411 28.0534 91.2411 29.0848C91.2411 29.1892 91.2386 29.2936 91.2337 29.398V31.9677H87.0634V29.1519L87.0635 29.1503C87.0662 29.1127 87.1133 28.4535 86.6409 27.877C86.2358 27.3824 85.5698 27.0842 84.6726 26.9972H78.4247V31.9304H74.344V17.1979H77.2741L85.6369 17.2029C87.6748 17.1084 89.2157 17.5756 90.2172 18.5896C91.3331 19.7204 91.4176 21.1594 91.4176 21.5694C91.4176 21.6177 91.4162 21.6521 91.4155 21.6695L91.4151 21.6813C91.4176 21.7483 91.4176 21.8153 91.4176 21.8823ZM87.1156 22.2926V21.8552C87.1156 20.6499 86.1663 19.6707 84.9982 19.6732H81.0491H78.4173V24.4772H84.9982C86.1663 24.4772 87.1156 23.498 87.1156 22.2926ZM147.679 17.1993H152.552C152.552 17.1993 144.838 24.0834 144.696 24.2077C144.843 24.3344 153.834 31.974 153.834 31.974H148.839L148.814 31.9542C148.814 31.9542 141.319 25.6441 141.319 25.6168H139.099V31.9641H135.136L135.143 17.1968H139.012H139.099V23.0446C139.256 23.0446 140.973 23.0644 140.973 23.0644C140.973 23.0644 147.621 17.2216 147.679 17.1993ZM125.736 17.1769H126.872C130.329 17.1769 133.142 19.3539 133.142 22.033V27.1029C133.142 29.782 130.329 31.9616 126.872 31.9616H114.796V17.1769H125.736ZM129.039 26.8494C129.131 26.2828 129.161 25.4875 129.161 24.7171C129.161 23.6099 129.101 22.5529 129.087 22.304C129.085 22.2707 129.084 22.2519 129.084 22.2493V22.2319C129.084 22.1051 129.057 21.2552 128.381 20.5692C127.74 19.9156 126.721 19.6025 125.351 19.6323H119.103V29.029H125.759C125.759 29.029 125.76 29.029 125.762 29.0291C125.881 29.0315 128.673 29.0891 129.039 26.8494Z" fill="white"/>
</svg>
